<?xml version="1.0" encoding="UTF-8" standalone="no"?>
<svg
   xmlns:dc="http://purl.org/dc/elements/1.1/"
   xmlns:cc="http://creativecommons.org/ns#"
   xmlns:rdf="http://www.w3.org/1999/02/22-rdf-syntax-ns#"
   xmlns:svg="http://www.w3.org/2000/svg"
   xmlns="http://www.w3.org/2000/svg"
   viewBox="0 0 209.17332 93.879997"
   height="93.879997"
   width="209.17332"
   xml:space="preserve"
   id="svg2"
   version="1.1"><metadata
     id="metadata8"><rdf:RDF><cc:Work
         rdf:about=""><dc:format>image/svg+xml</dc:format><dc:type
           rdf:resource="http://purl.org/dc/dcmitype/StillImage" /></cc:Work></rdf:RDF></metadata><defs
     id="defs6" /><g
     transform="matrix(1.3333333,0,0,-1.3333333,0,93.88)"
     id="g10"><g
       transform="scale(0.1)"
       id="g12"><path
         id="path14"
         style="fill:#00758f;fill-opacity:1;fill-rule:nonzero;stroke:none"
         d="m 846.074,269.691 c -19.523,0 -29.121,5.75 -29.121,31.668 V 498.793 H 849.91 V 314.164 c 0,-18.555 2.246,-21.437 11.524,-21.437 2.882,0 6.398,0.324 8.644,0.324 l 1.59,-19.844 c -6.719,-2.238 -15.672,-3.516 -25.594,-3.516 z m -100.488,76.473 h -13.762 c -36.797,0 -46.394,-12.156 -46.394,-28.797 0,-15.039 8.64,-24.64 24.636,-24.64 11.204,0 23.684,5.761 35.52,15.996 z m 7.039,-74.238 -2.559,17.277 c -14.082,-12.16 -29.121,-20.48 -49.277,-20.48 -31.359,0 -47.996,16.007 -47.996,44.16 0,32.637 25.273,54.394 81.27,54.394 h 11.523 v 14.407 c 0,19.199 -9.922,28.476 -32.961,28.476 -16.641,0 -33.594,-4.484 -46.719,-9.277 l -4.801,20.156 c 16.649,7.356 36.805,13.113 60.165,13.113 39.675,0 56.953,-19.199 56.953,-48.308 V 271.926 Z m -162.559,74.238 h -13.757 c -36.797,0 -46.399,-12.156 -46.399,-28.797 0,-15.039 8.641,-24.64 24.641,-24.64 11.195,0 23.676,5.761 35.515,15.996 z m 7.036,-74.238 -2.555,17.277 c -14.078,-12.16 -29.117,-20.48 -49.277,-20.48 -31.36,0 -47.997,16.007 -47.997,44.16 0,32.637 25.282,54.394 81.278,54.394 h 11.515 v 14.407 c 0,19.199 -9.921,28.476 -32.957,28.476 -16.64,0 -33.597,-4.484 -46.718,-9.277 l -4.801,20.156 c 16.64,7.356 36.801,13.113 60.156,13.113 39.68,0 56.957,-19.199 56.957,-48.308 V 271.926 Z M 480.949,401.195 c -6.078,1.602 -10.238,2.246 -13.441,2.246 -9.278,0 -17.914,-7.043 -33.594,-26.562 V 271.926 h -32.957 v 159.351 h 27.195 l 2.883,-26.879 c 17.274,22.399 28.156,29.754 39.676,29.754 4.16,0 8.961,-0.957 14.078,-3.515 z M 293.434,268.723 c -47.996,0 -76.473,34.238 -76.473,107.832 0,75.519 36.797,114.554 84.793,114.554 25.277,0 45.754,-13.117 58.559,-29.437 l -15.04,-14.715 c -12.48,9.598 -25.918,16.637 -41.601,16.637 -30.719,0 -50.555,-27.199 -50.555,-80.953 0,-62.082 18.238,-86.075 46.399,-86.075 13.437,0 23.355,4.793 28.793,9.278 v 61.113 h -28.477 v 25.606 h 62.398 v -98.879 c -16,-14.082 -38.718,-24.961 -68.796,-24.961" /><path
         id="path16"
         style="fill:#f29111;fill-opacity:1;fill-rule:nonzero;stroke:none"
         d="m 1330.76,298.293 h 9.23 l 5.58,-19.18 6.01,19.18 h 8.98 v -26.367 h -5.62 v 22.609 l -7.19,-22.609 h -4.67 l -7.03,22.609 v -22.609 h -5.29 z m -19.06,-4.375 h -7.84 v 4.375 h 21.37 v -4.375 h -7.84 v -21.992 h -5.69 z m -60.84,-21.992 c -1.28,62.715 -5.76,127.668 -10.24,172.148 h -0.32 l -54.39,-172.148 h -28.48 l -54.4,172.148 h -0.32 c -4.16,-47.676 -7.04,-109.433 -8,-172.148 h -32.95 c 1.91,70.078 7.03,145.586 15.67,215.988 h 45.44 l 51.84,-158.711 h 0.32 l 51.83,158.711 h 43.52 c 8.32,-70.402 14.72,-145.91 16.64,-215.988 z m -263.997,0 h -40.957 c -26.23,73.918 -46.394,143.027 -62.07,215.988 h 37.754 c 11.203,-57.598 29.445,-118.711 47.676,-180.469 17.922,58.231 31.684,117.746 42.884,180.469 h 34.24 C 1032.3,415.922 1013.43,344.242 986.863,271.926" /></g></g></svg>
