<?xml version="1.0" encoding="UTF-8" standalone="no"?>
<svg
   xmlns:dc="http://purl.org/dc/elements/1.1/"
   xmlns:cc="http://creativecommons.org/ns#"
   xmlns:rdf="http://www.w3.org/1999/02/22-rdf-syntax-ns#"
   xmlns:svg="http://www.w3.org/2000/svg"
   xmlns="http://www.w3.org/2000/svg"
   id="svg15"
   version="1.2"
   viewBox="0 0 450.59 377"
   height="377pt"
   width="450.59pt">
  <metadata
     id="metadata21">
    <rdf:RDF>
      <cc:Work
         rdf:about="">
        <dc:format>image/svg+xml</dc:format>
        <dc:type
           rdf:resource="http://purl.org/dc/dcmitype/StillImage" />
      </cc:Work>
    </rdf:RDF>
  </metadata>
  <defs
     id="defs19" />
  <g
     id="surface1">
    <path
       id="path2"
       d="M 129.121094 297.835938 C 129.121094 297.835938 144.878906 297.871094 144.902344 297.851562 C 157.226562 297.851562 158.605469 291.367188 163.925781 284.695312 C 169.238281 278.023438 172.046875 274.863281 175.308594 277.339844 C 186.769531 286.523438 196.308594 293.503906 204.65625 287.21875 C 219.777344 275.636719 226.453125 247.25 240.605469 230.929688 C 243.910156 226.707031 251.285156 220.441406 254.792969 216.394531 C 256.4375 214.660156 255.492188 213.015625 253.796875 214.035156 C 246.660156 218.828125 230.574219 229.3125 218.664062 251.460938 C 207.660156 271.53125 199.710938 278.382812 190.832031 273.0625 C 186.28125 270.519531 183.484375 266.859375 177.296875 262.527344 C 171.105469 258.195312 165.070312 267.078125 161.890625 270.261719 C 158.707031 273.445312 152.230469 282.667969 146.660156 283.726562 C 141.089844 284.789062 134.855469 283.199219 131.011719 290.890625 C 128.757812 295.265625 129.121094 297.835938 129.121094 297.835938 "
       style=" stroke:none;fill-rule:nonzero;fill:rgb(17.205811%,45.355225%,57.627869%);fill-opacity:1;" />
    <path
       id="path4"
       d="M 274.871094 143.382812 C 281.359375 152.117188 280.878906 159.570312 275.632812 166.640625 C 271.898438 172.289062 269.621094 177.007812 268.898438 184.65625 C 267.945312 197.285156 277.511719 208.917969 288.972656 210.0625 C 294.71875 210.300781 299.691406 208.394531 303.777344 204.355469 C 317.332031 190.953125 317.269531 158.3125 317.175781 153.386719 L 323.085938 153.3125 C 323.695312 154.878906 325.714844 159.636719 329.832031 165.734375 C 344.996094 188.1875 357.59375 193.691406 367.683594 191.648438 C 374.59375 190.066406 354.570312 175.367188 352.945312 173.804688 C 351.316406 172.238281 352.371094 170.9375 355.277344 172.574219 C 356.207031 173.097656 394.753906 193.136719 383.238281 201.558594 C 373.578125 208.148438 357.1875 206.378906 344.800781 195.828125 C 332.285156 184.796875 321.695312 163.429688 321.59375 163.214844 L 320.90625 161.824219 C 320.90625 161.824219 320.8125 161.632812 320.804688 161.84375 C 320.824219 162.550781 320.875 164.578125 320.886719 165.058594 C 321.488281 198.320312 311.027344 216.160156 291.09375 218.082031 C 275.964844 219.261719 258.527344 208.148438 256.289062 189.621094 C 253.769531 162.871094 271.230469 146.484375 274.871094 143.382812 "
       style=" stroke:none;fill-rule:nonzero;fill:rgb(17.205811%,45.355225%,57.627869%);fill-opacity:1;" />
    <path
       id="path6"
       d="M 132.457031 82.34375 C 132.457031 82.34375 134.9375 77.589844 141.382812 80.5625 C 146.453125 83.015625 156.835938 93.605469 167.875 116.101562 C 187.394531 156.71875 182.722656 136.316406 173.707031 114.960938 C 169.964844 106.09375 165.625 97.347656 160.832031 90.339844 C 155.980469 83.25 148.101562 74.710938 141.332031 70.878906 C 131.078125 65.164062 128.824219 70.761719 129.539062 76.082031 C 129.9375 79.402344 132.457031 82.34375 132.457031 82.34375 "
       style=" stroke:none;fill-rule:nonzero;fill:rgb(17.205811%,45.355225%,57.627869%);fill-opacity:1;" />
    <path
       id="path8"
       d="M 68.125 301.890625 C 71.769531 297.457031 75.09375 295.816406 83.476562 295.816406 C 91.957031 295.816406 94.695312 293.457031 101.785156 280.050781 C 109.621094 265.230469 117.128906 260.332031 123.769531 256 C 129.835938 252.597656 138.390625 248.269531 142.574219 237.964844 C 143.472656 235.980469 144.640625 232.734375 145.988281 228.976562 L 146.085938 228.707031 C 147.582031 224.535156 149.335938 219.65625 151.175781 215.242188 L 151.195312 215.332031 C 151.195312 215.332031 156.878906 200.898438 154.265625 220.445312 C 153.089844 229.242188 153.621094 234.796875 154.558594 238.289062 C 155.425781 240.695312 156.941406 243.292969 159.605469 245.558594 C 163.289062 248.695312 158.621094 247.125 152.34375 249.617188 C 150.886719 250.191406 149.421875 251.222656 147.921875 252.480469 C 144.257812 256.28125 139.507812 260.316406 133.855469 263.214844 C 119.125 270.757812 111.300781 285.664062 106.332031 292.035156 L 105.011719 293.941406 C 98.078125 303.964844 94.261719 309.480469 86.664062 309.480469 C 86.664062 309.480469 65.621094 309.5 65.605469 309.480469 C 65.652344 308.253906 65.96875 304.523438 68.125 301.890625 "
       style=" stroke:none;fill-rule:nonzero;fill:rgb(17.205811%,45.355225%,57.627869%);fill-opacity:1;" />
    <path
       id="path10"
       d="M 211.335938 138.335938 C 220.390625 123.707031 239.277344 107.480469 263.789062 107.480469 C 265.339844 107.480469 266.921875 107.546875 268.519531 107.683594 C 268.542969 107.683594 268.5625 107.691406 268.578125 107.691406 C 272.132812 102.058594 277.394531 94.703125 281.785156 92.59375 C 286.890625 90.144531 293.699219 92.070312 295.945312 99.085938 C 297.476562 103.867188 296.277344 112.890625 294.925781 111.921875 C 293.203125 110.6875 293.394531 94.8125 284.871094 100.171875 C 281.578125 102.25 279.085938 107.828125 278.28125 109.8125 C 287.378906 112.632812 294.257812 117.507812 298.808594 124.367188 C 301.726562 128.988281 306.484375 139.445312 303.355469 152.113281 C 301.972656 157.714844 301.15625 150.773438 299.652344 143.484375 C 298.253906 137.347656 296.453125 130.519531 289.355469 124.65625 C 282.257812 118.792969 271.765625 115.121094 259.332031 116.492188 C 247.289062 117.847656 236.492188 123.789062 228.507812 133.230469 C 226.53125 135.5625 221.78125 142.609375 220.894531 143.976562 C 215.578125 152.183594 212.535156 156.863281 202.039062 156.757812 C 203.714844 152.304688 206.554688 146.058594 211.335938 138.335938 "
       style=" stroke:none;fill-rule:nonzero;fill:rgb(17.205811%,45.355225%,57.627869%);fill-opacity:1;" />
    <path
       id="path12"
       d="M 113.242188 74.050781 C 118.914062 77.527344 125.882812 83.1875 133.339844 91.917969 C 141.484375 101.464844 150.808594 114.832031 161.050781 131.65625 C 167.015625 141.449219 168.75 147.128906 168.429688 147.800781 C 168.421875 147.800781 168.421875 147.800781 168.421875 147.800781 C 168.257812 147.800781 166.089844 147.523438 156.449219 134.0625 C 135.191406 103.183594 116.535156 82.734375 112.007812 85.324219 L 111.992188 85.332031 C 111.453125 85.667969 111.167969 86.363281 111.152344 87.402344 C 111.5 99.507812 137.265625 145.039062 174.089844 166.699219 C 168.710938 180.355469 170.699219 191.742188 176.917969 202.984375 C 181.179688 210.6875 196.828125 226.492188 211.28125 222.363281 C 225.738281 218.230469 221.183594 178.183594 197.414062 170.136719 C 190.617188 168.054688 186.324219 172.3125 184.804688 178.058594 C 183.367188 183.484375 184.035156 190.148438 184.496094 193.320312 C 184.664062 194.476562 184.128906 194.148438 183.816406 193.640625 C 175.144531 179.40625 181.746094 166.757812 189.84375 164.199219 C 199.296875 161.214844 212.183594 167.988281 219.972656 180.816406 C 232.496094 203.230469 226.597656 222.210938 216.566406 228.210938 C 198.546875 239.226562 169.078125 220.003906 162.910156 197.417969 C 160.597656 188.027344 162.023438 178.308594 165.507812 170.402344 C 113.253906 134.066406 101.527344 99.984375 99.207031 82.835938 C 97.949219 71.589844 105.679688 69.417969 113.242188 74.050781 "
       style=" stroke:none;fill-rule:nonzero;fill:rgb(17.205811%,45.355225%,57.627869%);fill-opacity:1;" />
  </g>
</svg>
