<svg width="77" height="16" viewBox="0 0 77 16" fill="none" xmlns="http://www.w3.org/2000/svg">
<path d="M5.14416 15.9989C1.91223 15.9989 0 13.614 0 8.4966C0 3.24706 2.47782 0.535382 5.70975 0.535382C6.47018 0.547533 7.21801 0.737841 7.89684 1.09195C8.57567 1.44606 9.16776 1.95472 9.62847 2.57957L8.61849 3.60167C7.83755 2.9018 6.85047 2.49506 5.81748 2.44746C3.75039 2.44746 2.41048 4.33869 2.41048 8.07246C2.41048 12.3903 3.64266 14.059 5.53469 14.059C6.23375 14.0794 6.91836 13.8511 7.47385 13.4124V9.16409H5.58855V7.38411H9.79007V14.2328C8.50925 15.3998 6.852 16.0298 5.14416 15.9989ZM17.7756 6.78615C17.4801 6.69458 17.1749 6.64087 16.8667 6.62623C16.2405 6.62623 15.6614 7.1199 14.6043 8.47574V15.7764H12.3891V4.69329H14.2205L14.409 6.58452C15.5739 5.02704 16.3078 4.49861 17.1023 4.49861C17.4335 4.50307 17.759 4.58887 18.0517 4.74892L17.7756 6.78615ZM25.5929 15.7764L25.4178 14.5735C24.5233 15.4525 23.3398 15.9493 22.1051 15.9641C19.9909 15.9641 18.8731 14.8517 18.8731 12.8909C18.8731 10.6242 20.5766 9.10846 24.3405 9.10846H25.1148V8.14199C25.1148 6.80701 24.4415 6.16038 22.8929 6.16038C21.8168 6.19028 20.7535 6.40894 19.7485 6.80701L19.4253 5.41641C20.6957 4.82522 22.0718 4.51497 23.4652 4.50556C26.1585 4.50556 27.3031 5.84054 27.3031 7.86387V15.7903L25.5929 15.7764ZM25.1148 10.6103H24.1924C21.7482 10.6103 21.0749 11.4516 21.0749 12.6128C21.0518 12.8436 21.0788 13.0768 21.1538 13.2955C21.2287 13.5142 21.3499 13.713 21.5085 13.8774C21.667 14.0417 21.859 14.1677 22.0705 14.246C22.282 14.3243 22.5077 14.3531 22.7313 14.3302C23.6266 14.2556 24.469 13.8624 25.1148 13.2177V10.6103ZM36.0563 15.7764L35.8879 14.5735C34.9902 15.4518 33.805 15.9483 32.5685 15.9641C30.4542 15.9641 29.3365 14.8517 29.3365 12.8909C29.3365 10.6242 31.04 9.10846 34.8106 9.10846H35.5849V8.14199C35.5849 6.80701 34.9116 6.16038 33.363 6.16038C32.2869 6.19028 31.2236 6.40894 30.2186 6.80701L29.8954 5.41641C31.1661 4.8262 32.542 4.51599 33.9353 4.50556C36.6286 4.50556 37.7665 5.84054 37.7665 7.86387V15.7903L36.0563 15.7764ZM35.5849 10.6103H34.6625C32.1847 10.6103 31.5383 11.4586 31.5383 12.6128C31.5165 12.8433 31.5443 13.076 31.6197 13.2941C31.6951 13.5122 31.8163 13.7104 31.9746 13.8745C32.1329 14.0386 32.3243 14.1646 32.5352 14.2434C32.7462 14.3221 32.9713 14.3518 33.1947 14.3302C34.0927 14.2589 34.9384 13.8653 35.5849 13.2177V10.6103ZM42.3181 15.9294C40.9715 15.9294 40.3588 15.5261 40.3588 13.7253V0H42.6211V12.8422C42.6211 14.1355 42.776 14.3371 43.3954 14.3371C43.5907 14.3371 43.8264 14.3371 43.9812 14.3371L44.089 15.7277C43.5255 15.8856 42.9419 15.9536 42.3585 15.9294H42.3181Z" fill="#ffffff"/>
<path d="M51.8365 15.7754H49.0758C47.3668 10.8686 45.9701 5.8517 44.8945 0.756836H47.4397C48.1938 4.76178 49.4192 9.01007 50.6514 13.2723C51.8577 9.16488 52.8201 4.9853 53.5332 0.756836H55.8427C54.894 5.86454 53.5544 10.8865 51.8365 15.7754ZM69.6121 15.7754C69.5246 11.4089 69.2216 6.89635 68.9388 3.80226L65.2759 15.7754H63.357L59.6537 3.80226C59.3776 7.11885 59.1824 11.4089 59.115 15.7754H56.8998C57.0278 10.9082 57.3711 5.65176 57.9502 0.756836H61.0138L64.5016 11.7913L67.9961 0.756836H70.8981C71.457 5.62395 71.8879 10.9013 72.0159 15.7754H69.6121ZM73.7059 14.2457H73.1807V13.9398H74.6149V14.2318H74.0897V15.7615H73.7059V14.2457ZM74.9919 13.9398H75.6114L75.9884 15.2747L76.3924 13.9398H76.9984V15.7754H76.6146V14.2318L76.1366 15.8032H75.8201L75.3488 14.2318V15.8032H74.9919V13.9398Z" fill="#F29111"/>
</svg>
