<svg width="369" height="283" viewBox="0 0 369 283" fill="none" xmlns="http://www.w3.org/2000/svg">
<path d="M79.7005 259.906C79.7005 259.906 96.8715 259.945 96.8971 259.923C110.327 259.923 111.829 252.871 117.627 245.615C123.416 238.36 126.476 234.923 130.03 237.616C142.519 247.604 152.914 255.195 162.01 248.36C178.487 235.764 185.762 204.892 201.183 187.144C204.784 182.551 212.821 175.737 216.643 171.336C218.435 169.45 217.405 167.661 215.558 168.77C207.781 173.983 190.252 185.385 177.274 209.472C165.283 231.299 156.621 238.75 146.946 232.964C141.987 230.199 138.939 226.218 132.197 221.507C125.45 216.796 118.874 226.456 115.409 229.918C111.94 233.381 104.882 243.411 98.8125 244.562C92.7427 245.717 85.9492 243.988 81.7607 252.353C79.3047 257.111 79.7005 259.906 79.7005 259.906Z" fill="#FFFFFF"/>
<path d="M238.522 91.9335C245.592 101.432 245.068 109.538 239.352 117.227C235.283 123.37 232.801 128.502 232.013 136.82C230.975 150.554 241.399 163.205 253.888 164.45C260.149 164.709 265.568 162.636 270.02 158.243C284.791 143.668 284.723 108.17 284.62 102.813L291.061 102.732C291.725 104.436 293.925 109.61 298.412 116.242C314.936 140.66 328.663 146.646 339.658 144.424C347.188 142.703 325.369 126.718 323.598 125.018C321.823 123.315 322.972 121.9 326.139 123.68C327.152 124.249 369.156 146.042 356.608 155.202C346.081 162.368 328.221 160.444 314.723 148.969C301.085 136.973 289.545 113.735 289.435 113.501L288.685 111.989C288.685 111.989 288.583 111.781 288.575 112.01C288.596 112.779 288.651 114.984 288.664 115.507C289.32 151.68 277.921 171.081 256.199 173.171C239.714 174.454 220.712 162.368 218.273 142.219C215.528 113.128 234.555 95.3065 238.522 91.9335Z" fill="#FFFFFF"/>
<path d="M83.3354 25.5515C83.3354 25.5515 86.0383 20.3814 93.0616 23.6143C98.5867 26.2822 109.901 37.799 121.93 62.2642C143.2 106.437 138.109 84.2485 128.285 61.0237C124.207 51.3804 119.478 41.8687 114.255 34.2475C108.968 26.537 100.383 17.2505 93.0063 13.0831C81.8328 6.86799 79.3768 12.9556 80.1557 18.7416C80.5899 22.3526 83.3354 25.5515 83.3354 25.5515Z" fill="#FFFFFF"/>
<path d="M13.2342 264.316C17.2056 259.494 20.8279 257.71 29.9625 257.71C39.2035 257.71 42.1874 255.144 49.9131 240.564C58.4518 224.447 66.6329 219.12 73.8691 214.408C80.4795 210.708 89.8014 206.001 94.3602 194.795C95.3392 192.636 96.6119 189.106 98.0804 185.019L98.1869 184.726C99.8171 180.189 101.728 174.883 103.733 170.083L103.754 170.181C103.754 170.181 109.948 154.484 107.1 175.741C105.819 185.308 106.398 191.349 107.419 195.147C108.364 197.764 110.016 200.589 112.919 203.053C116.933 206.464 111.846 204.757 105.006 207.467C103.418 208.091 101.822 209.213 100.187 210.581C96.1948 214.714 91.0188 219.103 84.8595 222.255C68.808 230.458 60.2821 246.669 54.8677 253.598L53.429 255.671C45.8736 266.572 41.7149 272.57 33.4359 272.57C33.4359 272.57 10.5057 272.591 10.4887 272.57C10.5398 271.236 10.8846 267.179 13.2342 264.316Z" fill="#FFFFFF"/>
<path d="M169.289 86.4448C179.155 70.5354 199.736 52.8885 226.446 52.8885C228.136 52.8885 229.86 52.9607 231.601 53.1094C231.626 53.1094 231.647 53.1179 231.664 53.1179C235.538 46.992 241.271 38.9927 246.056 36.6987C251.619 34.0351 259.038 36.1294 261.486 43.7591C263.155 48.9589 261.848 58.7722 260.375 57.7186C258.498 56.3762 258.706 39.1116 249.419 44.9401C245.83 47.2002 243.115 53.2666 242.238 55.4246C252.151 58.4918 259.647 63.7935 264.606 71.2533C267.786 76.2789 272.97 87.6513 269.561 101.428C268.054 107.52 267.164 99.971 265.525 92.0439C264.002 85.37 262.039 77.9442 254.305 71.5677C246.571 65.1912 235.138 61.1979 221.589 62.689C208.466 64.1631 196.701 70.6246 188 80.8925C185.847 83.4286 180.671 91.0923 179.704 92.5792C173.911 101.505 170.595 106.594 159.158 106.479C160.984 101.636 164.079 94.8435 169.289 86.4448Z" fill="#FFFFFF"/>
<path d="M62.3973 16.5327C68.5779 20.3136 76.1716 26.4692 84.2974 35.9639C93.1723 46.3464 103.333 60.8837 114.494 79.1806C120.993 89.8307 122.883 96.0076 122.534 96.7383C122.526 96.7383 122.526 96.7383 122.526 96.7383C122.347 96.7383 119.984 96.4366 109.479 81.7974C86.315 48.2156 65.9856 25.9764 61.0522 28.7929L61.0352 28.8014C60.4478 29.1668 60.1371 29.9229 60.1201 31.053C60.4989 44.2181 88.5752 93.7348 128.702 117.291C122.841 132.143 125.007 144.526 131.784 156.752C136.428 165.13 153.479 182.318 169.229 177.827C184.982 173.333 180.019 129.781 154.118 121.029C146.711 118.765 142.034 123.396 140.378 129.645C138.811 135.545 139.539 142.793 140.041 146.242C140.224 147.5 139.641 147.143 139.301 146.591C129.851 131.11 137.045 117.355 145.869 114.572C156.17 111.326 170.212 118.693 178.7 132.644C192.346 157.02 185.919 177.662 174.988 184.187C155.352 196.167 123.241 175.262 116.52 150.699C114 140.486 115.553 129.917 119.35 121.318C62.4101 81.8017 49.6319 44.7363 47.1035 26.0868C45.7328 13.8563 54.1566 11.4944 62.3973 16.5327Z" fill="#FFFFFF"/>
</svg>
