<svg width="213" height="44" viewBox="0 0 213 44" fill="none" xmlns="http://www.w3.org/2000/svg">
<path d="M14.23 43.997C5.28968 43.997 0 37.4386 0 23.3656C0 8.92942 6.85423 1.4723 15.7945 1.4723C17.8981 1.50572 19.9668 2.02906 21.8446 3.00286C23.7223 3.97666 25.3602 5.37548 26.6347 7.09382L23.8408 9.90458C21.6806 7.97996 18.95 6.86141 16.0925 6.73053C10.3745 6.73053 6.66798 11.9314 6.66798 22.1993C6.66798 34.0733 10.0765 38.6623 15.3103 38.6623C17.244 38.7184 19.1378 38.0906 20.6745 36.8841V25.2012H15.4593V20.3063H27.0817V39.1403C23.5386 42.3496 18.9543 44.082 14.23 43.997ZM49.1717 18.6619C48.3542 18.4101 47.5098 18.2624 46.6572 18.2221C44.925 18.2221 43.3232 19.5797 40.399 23.3083V43.3851H34.2712V12.9066H39.3373L39.8589 18.1074C43.0811 13.8244 45.1113 12.3712 47.3091 12.3712C48.2253 12.3834 49.1255 12.6194 49.9353 13.0595L49.1717 18.6619ZM70.796 43.3851L70.3118 40.0772C67.8373 42.4944 64.5634 43.8606 61.148 43.9014C55.2995 43.9014 52.2077 40.8421 52.2077 35.45C52.2077 29.2166 56.9199 25.0483 67.3317 25.0483H69.4736V22.3905C69.4736 18.7193 67.6111 16.941 63.3272 16.941C60.3505 17.0233 57.4092 17.6246 54.629 18.7193L53.735 14.8951C57.2492 13.2694 61.0558 12.4162 64.9103 12.3903C72.3606 12.3903 75.527 16.0615 75.527 21.6257V43.4234L70.796 43.3851ZM69.4736 29.1784H66.9219C60.1608 29.1784 58.2982 31.492 58.2982 34.6852C58.2344 35.3198 58.309 35.9611 58.5164 36.5626C58.7238 37.1641 59.0589 37.7106 59.4975 38.1627C59.9361 38.6148 60.4672 38.9611 61.0522 39.1765C61.6373 39.3918 62.2616 39.4709 62.8801 39.408C65.3567 39.2028 67.6872 38.1215 69.4736 36.3487V29.1784ZM99.7403 43.3851L99.2746 40.0772C96.7914 42.4924 93.5126 43.8578 90.0922 43.9014C84.2437 43.9014 81.1519 40.8421 81.1519 35.45C81.1519 29.2166 85.8642 25.0483 96.2945 25.0483H98.4365V22.3905C98.4365 18.7193 96.5739 16.941 92.29 16.941C89.3134 17.0233 86.3721 17.6246 83.5919 18.7193L82.6978 14.8951C86.2129 13.272 90.019 12.419 93.8732 12.3903C101.323 12.3903 104.471 16.0615 104.471 21.6257V43.4234L99.7403 43.3851ZM98.4365 29.1784H95.8848C89.0305 29.1784 87.2425 31.5111 87.2425 34.6852C87.1821 35.3191 87.259 35.9589 87.4677 36.5587C87.6763 37.1586 88.0115 37.7037 88.4494 38.155C88.8872 38.6063 89.4168 38.9526 90.0003 39.1692C90.5837 39.3859 91.2066 39.4674 91.8244 39.408C94.3087 39.2119 96.6479 38.1296 98.4365 36.3487V29.1784ZM117.062 43.8058C113.337 43.8058 111.642 42.6968 111.642 37.7445V0H117.9V35.3162C117.9 38.8726 118.329 39.4271 120.042 39.4271C120.582 39.4271 121.234 39.4271 121.663 39.4271L121.961 43.2513C120.402 43.6854 118.788 43.8724 117.174 43.8058H117.062Z" fill="white"/>
<path d="M143.396 43.3825H135.759C131.032 29.8888 127.168 16.0924 124.193 2.08154H131.233C133.319 13.0951 136.709 24.7779 140.118 36.499C143.455 25.2037 146.117 13.7098 148.09 2.08154H154.478C151.854 16.1277 148.148 29.938 143.396 43.3825V43.3825ZM192.568 43.3825C192.325 31.3746 191.487 18.9652 190.705 10.4565L180.573 43.3825H175.264L165.02 10.4565C164.257 19.5771 163.716 31.3746 163.53 43.3825H157.402C157.756 29.9979 158.706 15.5426 160.308 2.08154H168.783L178.431 32.4263L188.097 2.08154H196.125C197.671 15.4661 198.863 29.9788 199.217 43.3825H192.568ZM203.892 39.1759H202.439V38.3346H206.406V39.1377H204.954V43.3443H203.892V39.1759ZM207.449 38.3346H209.163L210.206 42.0058L211.324 38.3346H213V43.3825H211.938V39.1377L210.616 43.459H209.74L208.437 39.1377V43.459H207.449V38.3346Z" fill="#F29111"/>
</svg>
